<svg width="231" height="46" viewBox="0 0 231 46" fill="none" xmlns="http://www.w3.org/2000/svg">
<path d="M0.511353 35.9791V1.01935H84.7706" stroke="white"/>
<path d="M230.309 10.5193V45.4791H154.199" stroke="white"/>
<path d="M58.9493 28.2042C58.0561 28.2042 57.2837 27.9968 56.632 27.5821C55.9848 27.1628 55.4835 26.5704 55.1281 25.8047C54.7771 25.0391 54.6017 24.1299 54.6017 23.0772V23.0635C54.6017 22.0108 54.7771 21.1016 55.1281 20.336C55.4835 19.5658 55.9848 18.9734 56.632 18.5587C57.2837 18.1394 58.0538 17.9297 58.9425 17.9297C59.6215 17.9297 60.2413 18.0687 60.8019 18.3467C61.367 18.6247 61.8318 19.0053 62.1964 19.4883C62.561 19.9714 62.7889 20.5228 62.88 21.1426L62.8732 21.1495L61.9366 21.1563V21.1426C61.8364 20.6778 61.645 20.2699 61.3624 19.919C61.0799 19.5681 60.729 19.2924 60.3097 19.0919C59.895 18.8913 59.4392 18.7911 58.9425 18.7911C58.2544 18.7911 57.6551 18.9665 57.1447 19.3174C56.6388 19.6684 56.2469 20.1628 55.9689 20.8008C55.6954 21.4389 55.5587 22.1931 55.5587 23.0635V23.0772C55.5587 23.9431 55.6954 24.695 55.9689 25.3331C56.2469 25.9711 56.6388 26.4656 57.1447 26.8165C57.6551 27.1674 58.2566 27.3428 58.9493 27.3428C59.4598 27.3428 59.9223 27.254 60.337 27.0762C60.7563 26.8985 61.1049 26.6501 61.3829 26.3311C61.6609 26.0075 61.8432 25.6293 61.9298 25.1964L61.9435 25.1827H62.88V25.1964C62.7843 25.7979 62.5564 26.3243 62.1964 26.7755C61.8409 27.2266 61.3852 27.5775 60.8292 27.8282C60.2732 28.0788 59.6466 28.2042 58.9493 28.2042ZM64.2819 27.9991V20.6368H65.1843V21.8467H65.2663C65.4121 21.4275 65.6582 21.1016 66.0046 20.8692C66.3509 20.6322 66.7725 20.5137 67.2692 20.5137C67.4059 20.5137 67.5335 20.5206 67.652 20.5342C67.7705 20.5479 67.8731 20.5639 67.9597 20.5821V21.4639C67.832 21.432 67.7044 21.4092 67.5768 21.3956C67.4538 21.3773 67.3194 21.3682 67.1735 21.3682C66.7907 21.3682 66.4489 21.4571 66.1481 21.6348C65.8519 21.808 65.6172 22.0473 65.444 22.3526C65.2709 22.6579 65.1843 23.0089 65.1843 23.4053V27.9991H64.2819ZM71.679 28.1221C70.9908 28.1221 70.3961 27.9672 69.8948 27.6573C69.398 27.3474 69.0152 26.9099 68.7463 26.3448C68.4775 25.7797 68.343 25.112 68.343 24.3419V24.3282C68.343 23.5626 68.4775 22.8949 68.7463 22.3253C69.0152 21.751 69.3935 21.3067 69.8811 20.9922C70.3733 20.6732 70.9475 20.5137 71.6038 20.5137C72.2646 20.5137 72.8319 20.6687 73.3059 20.9786C73.7844 21.2839 74.1513 21.7123 74.4065 22.2637C74.6663 22.8106 74.7961 23.4464 74.7961 24.171V24.5538H68.8079V23.8155H74.3381L73.8938 24.4786V24.1368C73.8938 23.5215 73.7958 23.0066 73.5998 22.5919C73.4084 22.1726 73.1396 21.8559 72.7932 21.6417C72.4514 21.4275 72.0549 21.3204 71.6038 21.3204C71.148 21.3204 70.7447 21.4297 70.3938 21.6485C70.0429 21.8672 69.7649 22.1885 69.5598 22.6124C69.3593 23.0316 69.259 23.5398 69.259 24.1368V24.4786C69.259 25.0665 69.3593 25.5723 69.5598 25.9962C69.7603 26.42 70.0429 26.7458 70.4075 26.9737C70.772 27.2016 71.2027 27.3155 71.6995 27.3155C72.0549 27.3155 72.3717 27.2654 72.6497 27.1651C72.9322 27.0648 73.1669 26.9327 73.3538 26.7686C73.5406 26.6 73.675 26.4223 73.7571 26.2354L73.7776 26.1807H74.6868L74.6663 26.2354C74.5933 26.4861 74.4726 26.7253 74.304 26.9532C74.1399 27.1765 73.9303 27.377 73.675 27.5547C73.4198 27.7279 73.1236 27.8669 72.7864 27.9717C72.4537 28.072 72.0845 28.1221 71.679 28.1221ZM78.2078 28.1221C77.7339 28.1221 77.3123 28.0355 76.9432 27.8624C76.574 27.6846 76.2824 27.434 76.0682 27.1104C75.854 26.7868 75.7469 26.4063 75.7469 25.9688V25.9551C75.7469 25.5313 75.8494 25.1667 76.0545 24.8614C76.2596 24.5515 76.5604 24.31 76.9568 24.1368C77.3533 23.959 77.8341 23.8519 78.3992 23.8155L81.1473 23.6378V24.3692L78.5223 24.5469C77.8934 24.588 77.4262 24.7269 77.1209 24.9639C76.8201 25.1964 76.6697 25.5222 76.6697 25.9415V25.9551C76.6697 26.379 76.8292 26.7162 77.1482 26.9669C77.4673 27.213 77.8774 27.336 78.3787 27.336C78.8208 27.336 79.215 27.2449 79.5613 27.0626C79.9122 26.8757 80.1902 26.6251 80.3953 26.3106C80.6004 25.9962 80.7029 25.6452 80.7029 25.2579V22.9747C80.7029 22.4324 80.5434 22.0199 80.2244 21.7374C79.9054 21.4548 79.4474 21.3135 78.8504 21.3135C78.3491 21.3135 77.9321 21.4115 77.5994 21.6075C77.2667 21.8034 77.0503 22.086 76.95 22.4551L76.9432 22.4688H76.0408L76.0477 22.4415C76.1115 22.045 76.271 21.7032 76.5262 21.4161C76.7814 21.129 77.1095 20.9079 77.5106 20.753C77.9116 20.5935 78.3673 20.5137 78.8777 20.5137C79.4565 20.5137 79.9487 20.6117 80.3543 20.8077C80.7599 20.9991 81.0675 21.2771 81.2772 21.6417C81.4913 22.0062 81.5984 22.4483 81.5984 22.9678V27.9991H80.7029V26.7276H80.6141C80.4682 27.0193 80.2768 27.2699 80.0398 27.4796C79.8029 27.6846 79.5294 27.8441 79.2195 27.9581C78.9096 28.0674 78.5724 28.1221 78.2078 28.1221ZM85.7416 28.0469C85.0443 28.0469 84.5384 27.9011 84.224 27.6094C83.9141 27.3178 83.7591 26.837 83.7591 26.1671V21.3887H82.5765V20.6368H83.7591V18.7227H84.6888V20.6368H86.3773V21.3887H84.6888V25.962C84.6888 26.4177 84.7777 26.7458 84.9554 26.9464C85.1332 27.1469 85.4294 27.2471 85.8441 27.2471C85.9489 27.2471 86.0401 27.2449 86.1175 27.2403C86.195 27.2357 86.2816 27.2289 86.3773 27.2198V27.9922C86.2725 28.0059 86.1677 28.0173 86.0629 28.0264C85.9626 28.0401 85.8555 28.0469 85.7416 28.0469ZM90.5341 28.1221C89.846 28.1221 89.2512 27.9672 88.7499 27.6573C88.2532 27.3474 87.8704 26.9099 87.6015 26.3448C87.3326 25.7797 87.1982 25.112 87.1982 24.3419V24.3282C87.1982 23.5626 87.3326 22.8949 87.6015 22.3253C87.8704 21.751 88.2486 21.3067 88.7363 20.9922C89.2284 20.6732 89.8027 20.5137 90.4589 20.5137C91.1197 20.5137 91.6871 20.6687 92.1611 20.9786C92.6396 21.2839 93.0064 21.7123 93.2616 22.2637C93.5214 22.8106 93.6513 23.4464 93.6513 24.171V24.5538H87.663V23.8155H93.1933L92.749 24.4786V24.1368C92.749 23.5215 92.651 23.0066 92.455 22.5919C92.2636 22.1726 91.9947 21.8559 91.6484 21.6417C91.3066 21.4275 90.9101 21.3204 90.4589 21.3204C90.0032 21.3204 89.5999 21.4297 89.249 21.6485C88.898 21.8672 88.62 22.1885 88.415 22.6124C88.2144 23.0316 88.1142 23.5398 88.1142 24.1368V24.4786C88.1142 25.0665 88.2144 25.5723 88.415 25.9962C88.6155 26.42 88.898 26.7458 89.2626 26.9737C89.6272 27.2016 90.0579 27.3155 90.5546 27.3155C90.9101 27.3155 91.2268 27.2654 91.5048 27.1651C91.7874 27.0648 92.0221 26.9327 92.2089 26.7686C92.3958 26.6 92.5302 26.4223 92.6122 26.2354L92.6327 26.1807H93.5419L93.5214 26.2354C93.4485 26.4861 93.3277 26.7253 93.1591 26.9532C92.995 27.1765 92.7854 27.377 92.5302 27.5547C92.275 27.7279 91.9788 27.8669 91.6415 27.9717C91.3088 28.072 90.9397 28.1221 90.5341 28.1221ZM100.276 28.1221C99.8025 28.1221 99.3809 28.0355 99.0118 27.8624C98.6426 27.6846 98.351 27.434 98.1368 27.1104C97.9226 26.7868 97.8155 26.4063 97.8155 25.9688V25.9551C97.8155 25.5313 97.918 25.1667 98.1231 24.8614C98.3282 24.5515 98.629 24.31 99.0254 24.1368C99.4219 23.959 99.9027 23.8519 100.468 23.8155L103.216 23.6378V24.3692L100.591 24.5469C99.962 24.588 99.4948 24.7269 99.1895 24.9639C98.8887 25.1964 98.7383 25.5222 98.7383 25.9415V25.9551C98.7383 26.379 98.8978 26.7162 99.2168 26.9669C99.5359 27.213 99.946 27.336 100.447 27.336C100.889 27.336 101.284 27.2449 101.63 27.0626C101.981 26.8757 102.259 26.6251 102.464 26.3106C102.669 25.9962 102.772 25.6452 102.772 25.2579V22.9747C102.772 22.4324 102.612 22.0199 102.293 21.7374C101.974 21.4548 101.516 21.3135 100.919 21.3135C100.418 21.3135 100.001 21.4115 99.668 21.6075C99.3353 21.8034 99.1189 22.086 99.0186 22.4551L99.0118 22.4688H98.1094L98.1163 22.4415C98.1801 22.045 98.3396 21.7032 98.5948 21.4161C98.85 21.129 99.1781 20.9079 99.5791 20.753C99.9802 20.5935 100.436 20.5137 100.946 20.5137C101.525 20.5137 102.017 20.6117 102.423 20.8077C102.828 20.9991 103.136 21.2771 103.346 21.6417C103.56 22.0062 103.667 22.4483 103.667 22.9678V27.9991H102.772V26.7276H102.683C102.537 27.0193 102.345 27.2699 102.108 27.4796C101.871 27.6846 101.598 27.8441 101.288 27.9581C100.978 28.0674 100.641 28.1221 100.276 28.1221ZM105.383 27.9991V20.6368H106.286V21.9288H106.368C106.564 21.4822 106.858 21.1358 107.25 20.8897C107.646 20.6391 108.129 20.5137 108.699 20.5137C109.524 20.5137 110.159 20.7507 110.606 21.2247C111.057 21.6941 111.283 22.3549 111.283 23.2071V27.9991H110.387V23.4327C110.387 22.7354 110.226 22.209 109.902 21.8536C109.583 21.4936 109.104 21.3135 108.466 21.3135C108.033 21.3135 107.653 21.4092 107.325 21.6006C106.997 21.7921 106.741 22.0609 106.559 22.4073C106.377 22.7536 106.286 23.1592 106.286 23.6241V27.9991H105.383ZM115.536 27.9991L119.227 18.1348H119.945V19.3585H119.644L116.513 27.9991H115.536ZM117.129 24.9708L117.416 24.171H121.968L122.256 24.9708H117.129ZM122.857 27.9991L119.726 19.3585V18.1348H120.15L123.842 27.9991H122.857ZM127.52 28.1221C126.841 28.1221 126.253 27.9672 125.756 27.6573C125.259 27.3428 124.874 26.8985 124.601 26.3243C124.332 25.7501 124.198 25.0756 124.198 24.3008V24.2872C124.198 23.517 124.332 22.8516 124.601 22.2911C124.87 21.726 125.253 21.2885 125.749 20.9786C126.251 20.6687 126.838 20.5137 127.513 20.5137C128.074 20.5137 128.566 20.614 128.99 20.8145C129.413 21.0105 129.755 21.2794 130.015 21.6212C130.279 21.963 130.45 22.348 130.528 22.7764V22.8038H129.632V22.7901C129.523 22.3663 129.283 22.0154 128.914 21.7374C128.545 21.4548 128.078 21.3135 127.513 21.3135C127.025 21.3135 126.602 21.4366 126.241 21.6827C125.881 21.9242 125.603 22.2683 125.408 22.7149C125.212 23.157 125.114 23.6811 125.114 24.2872V24.3008C125.114 24.9115 125.212 25.4447 125.408 25.9005C125.608 26.3516 125.888 26.7025 126.248 26.9532C126.608 27.1993 127.03 27.3223 127.513 27.3223C128.06 27.3223 128.513 27.1993 128.873 26.9532C129.238 26.7071 129.486 26.3607 129.618 25.9141L129.632 25.8799L130.521 25.8731L130.514 25.9346C130.418 26.363 130.241 26.7436 129.981 27.0762C129.726 27.4044 129.391 27.6618 128.976 27.8487C128.566 28.031 128.08 28.1221 127.52 28.1221ZM134.794 28.1221C134.115 28.1221 133.527 27.9672 133.03 27.6573C132.533 27.3428 132.148 26.8985 131.875 26.3243C131.606 25.7501 131.472 25.0756 131.472 24.3008V24.2872C131.472 23.517 131.606 22.8516 131.875 22.2911C132.144 21.726 132.527 21.2885 133.023 20.9786C133.525 20.6687 134.112 20.5137 134.787 20.5137C135.348 20.5137 135.84 20.614 136.264 20.8145C136.687 21.0105 137.029 21.2794 137.289 21.6212C137.553 21.963 137.724 22.348 137.802 22.7764V22.8038H136.906V22.7901C136.797 22.3663 136.557 22.0154 136.188 21.7374C135.819 21.4548 135.352 21.3135 134.787 21.3135C134.299 21.3135 133.875 21.4366 133.515 21.6827C133.155 21.9242 132.877 22.2683 132.681 22.7149C132.486 23.157 132.388 23.6811 132.388 24.2872V24.3008C132.388 24.9115 132.486 25.4447 132.681 25.9005C132.882 26.3516 133.162 26.7025 133.522 26.9532C133.882 27.1993 134.304 27.3223 134.787 27.3223C135.334 27.3223 135.787 27.1993 136.147 26.9532C136.512 26.7071 136.76 26.3607 136.892 25.9141L136.906 25.8799L137.795 25.8731L137.788 25.9346C137.692 26.363 137.514 26.7436 137.255 27.0762C137 27.4044 136.665 27.6618 136.25 27.8487C135.84 28.031 135.354 28.1221 134.794 28.1221ZM142.088 28.1221C141.405 28.1221 140.812 27.9695 140.311 27.6641C139.81 27.3542 139.422 26.9144 139.149 26.3448C138.88 25.7751 138.746 25.1006 138.746 24.3214V24.3077C138.746 23.5284 138.88 22.8539 139.149 22.2842C139.422 21.7146 139.81 21.2771 140.311 20.9717C140.812 20.6664 141.405 20.5137 142.088 20.5137C142.776 20.5137 143.369 20.6664 143.866 20.9717C144.367 21.2771 144.752 21.7146 145.021 22.2842C145.294 22.8539 145.431 23.5284 145.431 24.3077V24.3214C145.431 25.1006 145.294 25.7751 145.021 26.3448C144.752 26.9144 144.367 27.3542 143.866 27.6641C143.369 27.9695 142.776 28.1221 142.088 28.1221ZM142.088 27.3223C142.594 27.3223 143.027 27.2016 143.387 26.96C143.752 26.7185 144.03 26.3744 144.221 25.9278C144.417 25.4766 144.515 24.9411 144.515 24.3214V24.3077C144.515 23.6879 144.417 23.1547 144.221 22.7081C144.03 22.2569 143.752 21.9128 143.387 21.6758C143.027 21.4343 142.594 21.3135 142.088 21.3135C141.582 21.3135 141.147 21.4343 140.783 21.6758C140.423 21.9128 140.145 22.2546 139.949 22.7012C139.757 23.1478 139.662 23.6833 139.662 24.3077V24.3214C139.662 24.9411 139.757 25.4766 139.949 25.9278C140.145 26.3744 140.423 26.7185 140.783 26.96C141.147 27.2016 141.582 27.3223 142.088 27.3223ZM149.335 28.1221C148.788 28.1221 148.321 28.015 147.934 27.8008C147.546 27.5866 147.252 27.2768 147.052 26.8712C146.851 26.4656 146.751 25.9825 146.751 25.4219V20.6368H147.653V25.1964C147.653 25.8845 147.811 26.4109 148.125 26.7755C148.444 27.14 148.92 27.3223 149.554 27.3223C149.895 27.3223 150.201 27.2676 150.47 27.1583C150.743 27.0489 150.976 26.8939 151.167 26.6934C151.358 26.4883 151.502 26.2445 151.598 25.962C151.698 25.6794 151.748 25.3627 151.748 25.0118V20.6368H152.65V27.9991H151.748V26.7139H151.666C151.547 27.0056 151.379 27.2585 151.16 27.4727C150.941 27.6824 150.677 27.8441 150.367 27.9581C150.062 28.0674 149.718 28.1221 149.335 28.1221ZM154.401 27.9991V20.6368H155.303V21.9288H155.385C155.581 21.4822 155.875 21.1358 156.267 20.8897C156.664 20.6391 157.147 20.5137 157.716 20.5137C158.541 20.5137 159.177 20.7507 159.624 21.2247C160.075 21.6941 160.3 22.3549 160.3 23.2071V27.9991H159.405V23.4327C159.405 22.7354 159.243 22.209 158.919 21.8536C158.6 21.4936 158.122 21.3135 157.484 21.3135C157.051 21.3135 156.67 21.4092 156.342 21.6006C156.014 21.7921 155.759 22.0609 155.577 22.4073C155.394 22.7536 155.303 23.1592 155.303 23.6241V27.9991H154.401ZM164.416 28.0469C163.719 28.0469 163.213 27.9011 162.899 27.6094C162.589 27.3178 162.434 26.837 162.434 26.1671V21.3887H161.251V20.6368H162.434V18.7227H163.363V20.6368H165.052V21.3887H163.363V25.962C163.363 26.4177 163.452 26.7458 163.63 26.9464C163.808 27.1469 164.104 27.2471 164.519 27.2471C164.623 27.2471 164.715 27.2449 164.792 27.2403C164.87 27.2357 164.956 27.2289 165.052 27.2198V27.9922C164.947 28.0059 164.842 28.0173 164.737 28.0264C164.637 28.0401 164.53 28.0469 164.416 28.0469Z" fill="white" fill-opacity="0.75"/>
</svg>
